name processed_emg_signals
nRows=30
nColumns=7
 
endheader
time	LGLTMED	LRF	LADDLONG	LST	LTA	LGM
2.887999999999989	0.2934900682840831	0.945654933396644	0.74712939235705	0.7037634691219944	0.5237750804663684	0.4496901865130574
2.8889999999999887	0.2943092364808717	0.9413753738362388	0.7435556439088994	0.7019745634048076	0.5217453285790488	0.4495887446254746
2.8899999999999886	0.295084275237747	0.9369932840226124	0.7398994438585934	0.6999794249834698	0.5196435713904531	0.4494283909747852
2.8909999999999885	0.2958153715221571	0.9325146575868388	0.7361674316106656	0.6977823711920912	0.5174738959749048	0.4492103370316992
2.8919999999999884	0.2965027580477316	0.927945356789836	0.7323662014346581	0.6953879276564687	0.5152403725183883	0.4489358177730451
2.8929999999999882	0.2971467150393849	0.9232911147164992	0.7285022959801709	0.6928008224701423	0.5129470507837723	0.4486060956976982
2.893999999999988	0.297747571856532	0.9185575376284144	0.7245821999731895	0.6900259799125722	0.5105979566132144	0.4482224647402023
2.894999999999988	0.2983057084629136	0.9137501074587332	0.7206123340991163	0.6870685137238542	0.5081970884676812	0.4477862540600367
2.895999999999988	0.2988215567322347	0.9088741844331438	0.7165990490768158	0.6839337199504246	0.5057484140028624	0.4472988316854441
2.896999999999988	0.299295601580063	0.903935009800724	0.7125486199268272	0.6806270693761907	0.5032558666802533	0.4467616079918794
2.8979999999999877	0.2997283819137118	0.8989377086569498	0.7084672404352738	0.6771541995540912	0.500723342412135	0.4461760389953869
2.8989999999999876	0.3001204913932273	0.8938872928400267	0.7043610178138175	0.6735209064548167	0.4981546962396312	0.4455436294415161
2.8999999999999875	0.3004725789979378	0.8887886638812256	0.7002359675546329	0.669733135752063	0.4955537390440487	0.4448659356703435
2.9009999999999874	0.300785349394371	0.8836466159907062	0.6960980084791489	0.6657969737662416	0.4929242342928108	0.4441445682390478
2.9019999999999873	0.301059563102753	0.8784658390615289	0.6919529579800671	0.6617186380906177	0.4902698948218514	0.4433811942842775
2.902999999999987	0.3012960364600634	0.8732509216758937	0.6878065274572011	0.6575044679242514	0.4875943796569632	0.4425775396082697
2.903999999999987	0.3014956413782454	0.8680063540986115	0.6836643179489496	0.6531609141362149	0.4849012908774212	0.441735390475084
2.904999999999987	0.3016593048966993	0.8627365312433054	0.6795318159612403	0.6486945290857783	0.4821941705264198	0.4408565951060166
2.905999999999987	0.3017880085290456	0.8574457555973286	0.6754143894952943	0.64411195622359	0.4794764975741615	0.4399430648656574
2.9069999999999867	0.3018827874055954	0.852138240091809	0.6713172842743473	0.6394199194997345	0.4767516849403778	0.438996775131181
2.9079999999999866	0.3019447292149114	0.8468181109033839	0.6672456201683774	0.6346252126052508	0.4740230765831792	0.4380197658380605
2.9089999999999865	0.3019749729497453	0.8414894101752279	0.6632043878148791	0.6297346880743107	0.4712939446611672	0.4370141416957016
2.9099999999999864	0.3019747074638667	0.8361560986462035	0.6591984454335347	0.6247552462746446	0.4685674867756347	0.4359820720677484
2.9109999999999863	0.3019451698468523	0.8308220581783438	0.6552325158325851	0.6196938243138896	0.4658468232996013	0.4349257905130471
2.911999999999986	0.3018876436234954	0.8254910941732919	0.651311183605486	0.6145573848896376	0.4631349948008035	0.4338475939855064
2.912999999999986	0.3018034567843396	0.8201669378682801	0.6474388925171801	0.6093529051108681	0.4604349595661515	0.4327498416928785
2.913999999999986	0.301693979653398	0.8148532485017426	0.6436199430801897	0.6040873653185365	0.457749591235597	0.4316349536169943
2.914999999999986	0.3015606225991855	0.8095536153381362	0.639858490321254	0.5987677379329158	0.4550816765534522	0.430505408699652
2.9159999999999857	0.3014048335951113	0.8042715595404747	0.6361585417391111	0.5934009763545597	0.4524339132451799	0.4293637427004039
2.9169999999999856	0.3012280956357319	0.7990105358783138	0.6325239554538372	0.5879940039448043	0.4498089080276046	0.4282125457337866
